# xmcd
# 
# Track frame offsets:
#     150
#     19842
#     39377
#     81777
#     115827
#     138127
#     171590
#     187765
# 
# Disc length: 3018
# 
# Revision: 6
# Processed by: cddbd v1.5.2PL0 Copyright (c) Steve Scherf et al.
# Submitted via: fre:ac v1.0.31
# 
DISCID=5d0bc808
DTITLE=Columbia Blues - Lonnie Mack Live! - Attack Of The Killer V
DYEAR=1990
DGENRE=Blues
TTITLE0=Riding The Blinds
TTITLE1=Natural Disaster
TTITLE2=Stop
TTITLE3=Medley: Camp Washington Chili - If You Have To Know
TTITLE4=Satisfy Suzie
TTITLE5=I Found A Love
TTITLE6=The Move
TTITLE7=Cincinnati Jail
EXTD=YEAR: 1990
EXTT0=
EXTT1=
EXTT2=
EXTT3=
EXTT4=
EXTT5=
EXTT6=
EXTT7=
PLAYORDER=
